<?xml version="1.0" ?><svg id="Слой_1" style="enable-background:new 0 0 512 512;" version="1.1" viewBox="0 0 512 512" xml:space="preserve" xmlns="http://www.w3.org/2000/svg" xmlns:xlink="http://www.w3.org/1999/xlink"><style type="text/css">
	.st0{fill:#FFD6C6;}
	.st1{fill:#FFF7C3;}
	.st2{fill:#EDF1AD;}
	.st3{fill:#EBF2FF;}
	.st4{fill:none;stroke:#000000;stroke-width:12;stroke-miterlimit:10;}
	.st5{fill:#FFFFFF;}
</style><g><g><g><g><g><path class="st0" d="M491.5,392.5h-405c0-28.6,10.6-54.5,27.8-73.3c6.5-7.1,14-13.2,22.3-18.1c13.3-7.8,28.6-12.3,44.8-12.3       h215.2c16.2,0,31.5,4.4,44.8,12.3C471.3,318.6,491.5,353,491.5,392.5z"/><path class="st1" d="M288.9,270.5v18.4H181.4c-16.2,0-31.5,4.4-44.8,12.3v-30.7c0-35.8,26.6-64.8,59.3-64.8h33.7       C262.3,205.7,288.9,234.7,288.9,270.5z"/><path class="st2" d="M441.5,270.5v30.7c-13.4-7.8-28.6-12.3-44.8-12.3H289.1v-18.4c0-35.8,26.6-64.8,59.3-64.8h33.7       C414.9,205.7,441.5,234.7,441.5,270.5z"/><rect class="st3" height="38.6" width="405" x="86.5" y="392.5"/></g><path class="st4" d="M468.1,392.5h-405c0-28.6,10.6-54.5,27.8-73.3c6.5-7.1,14-13.2,22.3-18.1c13.3-7.8,28.6-12.3,44.8-12.3      h215.2c16.2,0,31.5,4.4,44.8,12.3C447.9,318.6,468.1,353,468.1,392.5z"/><path class="st4" d="M265.5,270.5v18.4H158c-16.2,0-31.5,4.4-44.8,12.3v-30.7c0-35.8,26.6-64.8,59.3-64.8h33.7      C238.9,205.7,265.5,234.7,265.5,270.5z"/><path class="st4" d="M418.1,270.5v30.7c-13.4-7.8-28.6-12.3-44.8-12.3H265.7v-18.4c0-35.8,26.6-64.8,59.3-64.8h33.7      C391.5,205.7,418.1,234.7,418.1,270.5z"/><rect class="st4" height="38.6" width="405" x="63.1" y="392.5"/><line class="st4" x1="63.1" x2="38.4" y1="431.1" y2="431.1"/><line class="st4" x1="29.9" x2="20.5" y1="431.1" y2="431.1"/></g><g><line class="st4" x1="95.3" x2="142" y1="364.9" y2="364.9"/><line class="st4" x1="152.4" x2="164.2" y1="364.9" y2="364.9"/></g><path class="st5" d="M238.7,306.7l-23.6,9.6c-12.8,5.2-27.4-1-32.6-13.8l-9.6-23.6c-5.2-12.8,1-27.4,13.8-32.6l23.6-9.6     c12.8-5.2,27.4,1,32.6,13.8l9.6,23.6C257.7,286.8,251.5,301.5,238.7,306.7z"/><path class="st4" d="M228.1,310.3l-23.6,9.6c-12.8,5.2-27.4-1-32.6-13.8l-9.6-23.6c-5.2-12.8,1-27.4,13.8-32.6l23.6-9.6     c12.8-5.2,27.4,1,32.6,13.8l9.6,23.6C247.1,290.4,240.9,305.1,228.1,310.3z"/></g><g><rect class="st3" height="72" width="72" x="151.7" y="100.1"/><rect class="st4" height="72" width="72" x="129.5" y="100.1"/></g><g><rect class="st1" height="72" width="72" x="341.1" y="100.1"/><rect class="st4" height="72" width="72" x="317.5" y="100.1"/></g></g><g><g><path d="M164.2,83.6c7.7,0,7.7-12,0-12C156.4,71.6,156.4,83.6,164.2,83.6L164.2,83.6z"/></g></g><g><g><path d="M353.5,83.6c7.7,0,7.7-12,0-12C345.8,71.6,345.8,83.6,353.5,83.6L353.5,83.6z"/></g></g></g></svg>